<mxfile host="app.diagrams.net" agent="Mozilla/5.0 (Windows NT 10.0; Win64; x64; rv:133.0) Gecko/20100101 Firefox/133.0" version="25.0.1">
  <diagram name="Página-1" id="R-SKQRLzCb2xS6ncJQb2">
    <mxGraphModel dx="2120" dy="2293" grid="1" gridSize="10" guides="1" tooltips="1" connect="1" arrows="1" fold="1" page="1" pageScale="1" pageWidth="850" pageHeight="1100" math="0" shadow="0">
      <root>
        <mxCell id="0" />
        <mxCell id="1" parent="0" />
        <mxCell id="He911wZqvg5NJAg6M06w-1" value="" style="rounded=1;whiteSpace=wrap;html=1;arcSize=1;" vertex="1" parent="1">
          <mxGeometry x="50" y="30" width="1240" height="1240" as="geometry" />
        </mxCell>
        <mxCell id="He911wZqvg5NJAg6M06w-2" value="image Potro-Titulate" style="rounded=1;whiteSpace=wrap;html=1;arcSize=5;" vertex="1" parent="1">
          <mxGeometry x="77" y="58" width="135" height="112" as="geometry" />
        </mxCell>
        <mxCell id="He911wZqvg5NJAg6M06w-4" value="Opciones" style="rounded=1;whiteSpace=wrap;html=1;arcSize=5;" vertex="1" parent="1">
          <mxGeometry x="388" y="85" width="130" height="37" as="geometry" />
        </mxCell>
        <mxCell id="He911wZqvg5NJAg6M06w-5" value="Formatos" style="rounded=1;whiteSpace=wrap;html=1;arcSize=5;" vertex="1" parent="1">
          <mxGeometry x="518" y="85" width="130" height="37" as="geometry" />
        </mxCell>
        <mxCell id="He911wZqvg5NJAg6M06w-6" value="FAQ" style="rounded=1;whiteSpace=wrap;html=1;arcSize=5;" vertex="1" parent="1">
          <mxGeometry x="648" y="85" width="130" height="37" as="geometry" />
        </mxCell>
        <mxCell id="He911wZqvg5NJAg6M06w-8" value="otros" style="rounded=1;whiteSpace=wrap;html=1;arcSize=5;" vertex="1" parent="1">
          <mxGeometry x="778" y="85" width="130" height="37" as="geometry" />
        </mxCell>
        <mxCell id="He911wZqvg5NJAg6M06w-11" style="edgeStyle=orthogonalEdgeStyle;rounded=0;orthogonalLoop=1;jettySize=auto;html=1;exitX=0.5;exitY=1;exitDx=0;exitDy=0;" edge="1" parent="1" source="He911wZqvg5NJAg6M06w-8" target="He911wZqvg5NJAg6M06w-8">
          <mxGeometry relative="1" as="geometry" />
        </mxCell>
        <mxCell id="He911wZqvg5NJAg6M06w-12" style="edgeStyle=orthogonalEdgeStyle;rounded=0;orthogonalLoop=1;jettySize=auto;html=1;exitX=0.5;exitY=1;exitDx=0;exitDy=0;" edge="1" parent="1" source="He911wZqvg5NJAg6M06w-8" target="He911wZqvg5NJAg6M06w-8">
          <mxGeometry relative="1" as="geometry" />
        </mxCell>
        <mxCell id="He911wZqvg5NJAg6M06w-13" value="Iniciar Sesión" style="rounded=1;whiteSpace=wrap;html=1;arcSize=5;" vertex="1" parent="1">
          <mxGeometry x="1087" y="57" width="80" height="30" as="geometry" />
        </mxCell>
        <mxCell id="He911wZqvg5NJAg6M06w-14" value="Registrarse" style="rounded=1;whiteSpace=wrap;html=1;arcSize=5;" vertex="1" parent="1">
          <mxGeometry x="1172" y="57" width="80" height="30" as="geometry" />
        </mxCell>
        <mxCell id="He911wZqvg5NJAg6M06w-21" value="" style="rounded=1;whiteSpace=wrap;html=1;arcSize=2;" vertex="1" parent="1">
          <mxGeometry x="70" y="200" width="1200" height="440" as="geometry" />
        </mxCell>
        <mxCell id="He911wZqvg5NJAg6M06w-22" value="" style="rounded=1;whiteSpace=wrap;html=1;" vertex="1" parent="1">
          <mxGeometry x="1280" y="43" width="3" height="1170" as="geometry" />
        </mxCell>
        <mxCell id="He911wZqvg5NJAg6M06w-23" value="" style="rounded=1;whiteSpace=wrap;html=1;arcSize=2;" vertex="1" parent="1">
          <mxGeometry x="70" y="650" width="1200" height="440" as="geometry" />
        </mxCell>
        <mxCell id="He911wZqvg5NJAg6M06w-24" value="" style="rounded=1;whiteSpace=wrap;html=1;arcSize=2;" vertex="1" parent="1">
          <mxGeometry x="70" y="1100" width="1200" height="140" as="geometry" />
        </mxCell>
        <mxCell id="He911wZqvg5NJAg6M06w-26" value="" style="triangle;whiteSpace=wrap;html=1;" vertex="1" parent="1">
          <mxGeometry x="1230" y="850" width="20" height="40" as="geometry" />
        </mxCell>
        <mxCell id="He911wZqvg5NJAg6M06w-32" value="" style="triangle;whiteSpace=wrap;html=1;" vertex="1" parent="1">
          <mxGeometry x="1230" y="390" width="20" height="40" as="geometry" />
        </mxCell>
        <mxCell id="He911wZqvg5NJAg6M06w-34" value="" style="triangle;whiteSpace=wrap;html=1;direction=west;" vertex="1" parent="1">
          <mxGeometry x="125" y="850" width="20" height="40" as="geometry" />
        </mxCell>
        <mxCell id="He911wZqvg5NJAg6M06w-35" value="" style="triangle;whiteSpace=wrap;html=1;direction=west;" vertex="1" parent="1">
          <mxGeometry x="105" y="390" width="20" height="40" as="geometry" />
        </mxCell>
        <mxCell id="He911wZqvg5NJAg6M06w-37" value="Dirección" style="rounded=1;whiteSpace=wrap;html=1;" vertex="1" parent="1">
          <mxGeometry x="90" y="1116" width="170" height="110" as="geometry" />
        </mxCell>
        <mxCell id="He911wZqvg5NJAg6M06w-38" value="Contacto" style="rounded=1;whiteSpace=wrap;html=1;" vertex="1" parent="1">
          <mxGeometry x="450" y="1120" width="410" height="60" as="geometry" />
        </mxCell>
        <mxCell id="He911wZqvg5NJAg6M06w-39" value="" style="rounded=1;whiteSpace=wrap;html=1;" vertex="1" parent="1">
          <mxGeometry x="1090" y="1118" width="170" height="110" as="geometry" />
        </mxCell>
        <mxCell id="He911wZqvg5NJAg6M06w-41" value="Privacidad" style="rounded=1;whiteSpace=wrap;html=1;" vertex="1" parent="1">
          <mxGeometry x="320" y="1207" width="670" height="20" as="geometry" />
        </mxCell>
        <mxCell id="He911wZqvg5NJAg6M06w-42" value="Pagina de &quot;Inicio&quot;" style="text;html=1;align=center;verticalAlign=middle;whiteSpace=wrap;rounded=0;fontSize=20;" vertex="1" parent="1">
          <mxGeometry x="550" y="-10" width="170" height="30" as="geometry" />
        </mxCell>
        <mxCell id="He911wZqvg5NJAg6M06w-43" value="&lt;div align=&quot;left&quot;&gt;Sugerencias respecto a títulos:&lt;/div&gt;&lt;div align=&quot;left&quot;&gt;&lt;span style=&quot;white-space: pre;&quot;&gt;&#x9;&lt;/span&gt;1. Títulos son más intensos&lt;/div&gt;&lt;div align=&quot;left&quot;&gt;&lt;span style=&quot;white-space: pre;&quot;&gt;&#x9;&lt;/span&gt;2. El título principal es con el color más intenso&lt;br&gt;&lt;/div&gt;" style="text;html=1;align=center;verticalAlign=middle;whiteSpace=wrap;rounded=0;" vertex="1" parent="1">
          <mxGeometry x="70" y="-190" width="390" height="30" as="geometry" />
        </mxCell>
        <mxCell id="He911wZqvg5NJAg6M06w-44" value="T001" style="text;html=1;align=center;verticalAlign=middle;whiteSpace=wrap;rounded=0;fontStyle=1;fontColor=#FF3333;fontSize=20;" vertex="1" parent="1">
          <mxGeometry x="65" y="-20" width="60" height="30" as="geometry" />
        </mxCell>
        <mxCell id="He911wZqvg5NJAg6M06w-46" value="Página de &quot;Inicio de Sesión&quot;" style="text;html=1;align=center;verticalAlign=middle;whiteSpace=wrap;rounded=0;fontSize=20;" vertex="1" parent="1">
          <mxGeometry x="570" y="1560" width="270" height="30" as="geometry" />
        </mxCell>
        <mxCell id="He911wZqvg5NJAg6M06w-47" value="T002" style="text;html=1;align=center;verticalAlign=middle;whiteSpace=wrap;rounded=0;fontStyle=1;fontColor=#FF3333;fontSize=20;" vertex="1" parent="1">
          <mxGeometry x="50" y="1540" width="60" height="30" as="geometry" />
        </mxCell>
        <mxCell id="He911wZqvg5NJAg6M06w-48" value="" style="rounded=1;whiteSpace=wrap;html=1;arcSize=1;" vertex="1" parent="1">
          <mxGeometry x="50" y="1600" width="1240" height="830" as="geometry" />
        </mxCell>
        <mxCell id="He911wZqvg5NJAg6M06w-49" value="" style="ellipse;whiteSpace=wrap;html=1;aspect=fixed;" vertex="1" parent="1">
          <mxGeometry x="608" y="1630" width="140" height="140" as="geometry" />
        </mxCell>
        <mxCell id="He911wZqvg5NJAg6M06w-50" value="" style="rounded=1;whiteSpace=wrap;html=1;arcSize=3;" vertex="1" parent="1">
          <mxGeometry x="470" y="1830" width="410" height="430" as="geometry" />
        </mxCell>
        <mxCell id="He911wZqvg5NJAg6M06w-51" value="" style="rounded=1;whiteSpace=wrap;html=1;arcSize=5;" vertex="1" parent="1">
          <mxGeometry x="490" y="1865" width="370" height="310" as="geometry" />
        </mxCell>
        <mxCell id="He911wZqvg5NJAg6M06w-52" value="&lt;b&gt;&lt;font style=&quot;font-size: 18px;&quot;&gt;Iniciar Sesión&lt;/font&gt;&lt;/b&gt;" style="rounded=1;whiteSpace=wrap;html=1;arcSize=5;" vertex="1" parent="1">
          <mxGeometry x="590" y="2190" width="170" height="40" as="geometry" />
        </mxCell>
        <mxCell id="He911wZqvg5NJAg6M06w-53" value="&lt;font style=&quot;font-size: 22px;&quot;&gt;&lt;b&gt;Usuario&lt;/b&gt;&lt;/font&gt;" style="text;html=1;align=center;verticalAlign=middle;whiteSpace=wrap;rounded=0;fontSize=20;" vertex="1" parent="1">
          <mxGeometry x="518" y="1912" width="60" height="30" as="geometry" />
        </mxCell>
        <mxCell id="He911wZqvg5NJAg6M06w-56" value="" style="rounded=1;whiteSpace=wrap;html=1;arcSize=5;" vertex="1" parent="1">
          <mxGeometry x="510" y="1949" width="330" height="40" as="geometry" />
        </mxCell>
        <mxCell id="He911wZqvg5NJAg6M06w-58" value="" style="rounded=1;whiteSpace=wrap;html=1;arcSize=5;" vertex="1" parent="1">
          <mxGeometry x="510" y="2060" width="330" height="40" as="geometry" />
        </mxCell>
        <mxCell id="He911wZqvg5NJAg6M06w-59" value="&lt;b&gt;Contraseña&lt;/b&gt;" style="text;html=1;align=center;verticalAlign=middle;whiteSpace=wrap;rounded=0;fontSize=20;" vertex="1" parent="1">
          <mxGeometry x="530" y="2022" width="60" height="30" as="geometry" />
        </mxCell>
        <mxCell id="He911wZqvg5NJAg6M06w-61" value="&lt;font style=&quot;font-size: 14px;&quot;&gt;&lt;span&gt;Inicio de sesión a Potro-Titulate&lt;br&gt;&lt;/span&gt;&lt;/font&gt;" style="rounded=1;whiteSpace=wrap;html=1;dashed=1;dashPattern=1 1;fontStyle=0" vertex="1" parent="1">
          <mxGeometry x="541" y="1790" width="270" height="30" as="geometry" />
        </mxCell>
        <mxCell id="He911wZqvg5NJAg6M06w-62" value="" style="triangle;whiteSpace=wrap;html=1;direction=west;" vertex="1" parent="1">
          <mxGeometry x="78" y="1650" width="40" height="50" as="geometry" />
        </mxCell>
        <mxCell id="He911wZqvg5NJAg6M06w-65" value="Página de &quot;Registrarse&quot;" style="text;html=1;align=center;verticalAlign=middle;whiteSpace=wrap;rounded=0;fontSize=20;" vertex="1" parent="1">
          <mxGeometry x="550" y="2670" width="250" height="30" as="geometry" />
        </mxCell>
        <mxCell id="He911wZqvg5NJAg6M06w-66" value="T003" style="text;html=1;align=center;verticalAlign=middle;whiteSpace=wrap;rounded=0;fontStyle=1;fontColor=#FF3333;fontSize=20;" vertex="1" parent="1">
          <mxGeometry x="30" y="2650" width="60" height="30" as="geometry" />
        </mxCell>
        <mxCell id="He911wZqvg5NJAg6M06w-79" value="&lt;font style=&quot;font-size: 14px;&quot;&gt;&lt;u&gt;¿Olvidaste tu&amp;nbsp; contraseña?&lt;/u&gt;&lt;/font&gt;" style="rounded=1;whiteSpace=wrap;html=1;dashed=1;dashPattern=1 1;" vertex="1" parent="1">
          <mxGeometry x="540" y="2310" width="270" height="60" as="geometry" />
        </mxCell>
        <mxCell id="He911wZqvg5NJAg6M06w-80" value="" style="rounded=1;whiteSpace=wrap;html=1;arcSize=1;" vertex="1" parent="1">
          <mxGeometry x="35" y="2720" width="1240" height="860" as="geometry" />
        </mxCell>
        <mxCell id="He911wZqvg5NJAg6M06w-82" value="" style="rounded=1;whiteSpace=wrap;html=1;arcSize=3;" vertex="1" parent="1">
          <mxGeometry x="455" y="2950" width="410" height="600" as="geometry" />
        </mxCell>
        <mxCell id="He911wZqvg5NJAg6M06w-83" value="" style="rounded=1;whiteSpace=wrap;html=1;arcSize=5;" vertex="1" parent="1">
          <mxGeometry x="475" y="2985" width="370" height="505" as="geometry" />
        </mxCell>
        <mxCell id="He911wZqvg5NJAg6M06w-84" value="Registrarse" style="rounded=1;whiteSpace=wrap;html=1;arcSize=5;fontStyle=1;fontSize=16;" vertex="1" parent="1">
          <mxGeometry x="575" y="3501" width="170" height="40" as="geometry" />
        </mxCell>
        <mxCell id="He911wZqvg5NJAg6M06w-85" value="&lt;b&gt;Nombre completo&lt;br&gt;&lt;/b&gt;" style="text;html=1;align=center;verticalAlign=middle;whiteSpace=wrap;rounded=0;fontSize=20;" vertex="1" parent="1">
          <mxGeometry x="482" y="3003" width="192" height="30" as="geometry" />
        </mxCell>
        <mxCell id="He911wZqvg5NJAg6M06w-86" value="" style="rounded=1;whiteSpace=wrap;html=1;arcSize=5;" vertex="1" parent="1">
          <mxGeometry x="491" y="3030" width="330" height="40" as="geometry" />
        </mxCell>
        <mxCell id="He911wZqvg5NJAg6M06w-89" value="&lt;font style=&quot;font-size: 14px;&quot;&gt;&lt;span&gt;Registrate&amp;nbsp; a Potro-Titulate&lt;br&gt;&lt;/span&gt;&lt;/font&gt;" style="rounded=1;whiteSpace=wrap;html=1;dashed=1;dashPattern=1 1;fontStyle=0" vertex="1" parent="1">
          <mxGeometry x="526" y="2910" width="270" height="30" as="geometry" />
        </mxCell>
        <mxCell id="He911wZqvg5NJAg6M06w-90" value="" style="triangle;whiteSpace=wrap;html=1;direction=west;" vertex="1" parent="1">
          <mxGeometry x="63" y="2770" width="40" height="50" as="geometry" />
        </mxCell>
        <mxCell id="He911wZqvg5NJAg6M06w-92" value="" style="ellipse;whiteSpace=wrap;html=1;aspect=fixed;" vertex="1" parent="1">
          <mxGeometry x="600" y="2740" width="140" height="140" as="geometry" />
        </mxCell>
        <mxCell id="He911wZqvg5NJAg6M06w-93" value="Núm. Cuenta" style="text;html=1;align=center;verticalAlign=middle;whiteSpace=wrap;rounded=0;fontSize=20;fontStyle=1" vertex="1" parent="1">
          <mxGeometry x="487" y="3081" width="138" height="30" as="geometry" />
        </mxCell>
        <mxCell id="He911wZqvg5NJAg6M06w-94" value="" style="rounded=1;whiteSpace=wrap;html=1;arcSize=5;" vertex="1" parent="1">
          <mxGeometry x="491" y="3110" width="330" height="40" as="geometry" />
        </mxCell>
        <mxCell id="He911wZqvg5NJAg6M06w-95" value="&lt;span&gt;Licenciatura&lt;/span&gt;" style="text;html=1;align=center;verticalAlign=middle;whiteSpace=wrap;rounded=0;fontSize=20;fontStyle=1" vertex="1" parent="1">
          <mxGeometry x="521" y="3160" width="60" height="30" as="geometry" />
        </mxCell>
        <mxCell id="He911wZqvg5NJAg6M06w-96" value="" style="rounded=1;whiteSpace=wrap;html=1;arcSize=5;" vertex="1" parent="1">
          <mxGeometry x="491" y="3188" width="330" height="28" as="geometry" />
        </mxCell>
        <mxCell id="He911wZqvg5NJAg6M06w-97" value="Correo electrónico institucional" style="text;html=1;align=center;verticalAlign=middle;whiteSpace=wrap;rounded=0;fontSize=20;fontStyle=1" vertex="1" parent="1">
          <mxGeometry x="480" y="3234" width="320" height="30" as="geometry" />
        </mxCell>
        <mxCell id="He911wZqvg5NJAg6M06w-98" value="" style="rounded=1;whiteSpace=wrap;html=1;arcSize=5;" vertex="1" parent="1">
          <mxGeometry x="491" y="3262" width="330" height="40" as="geometry" />
        </mxCell>
        <mxCell id="He911wZqvg5NJAg6M06w-99" value="Contraseña" style="text;html=1;align=center;verticalAlign=middle;whiteSpace=wrap;rounded=0;fontSize=20;fontStyle=1" vertex="1" parent="1">
          <mxGeometry x="509" y="3311" width="76" height="30" as="geometry" />
        </mxCell>
        <mxCell id="He911wZqvg5NJAg6M06w-100" value="" style="rounded=1;whiteSpace=wrap;html=1;arcSize=5;" vertex="1" parent="1">
          <mxGeometry x="491" y="3338" width="330" height="40" as="geometry" />
        </mxCell>
        <mxCell id="He911wZqvg5NJAg6M06w-101" value="Confirmar contraseña" style="text;html=1;align=center;verticalAlign=middle;whiteSpace=wrap;rounded=0;fontSize=20;" vertex="1" parent="1">
          <mxGeometry x="484" y="3401" width="216" height="30" as="geometry" />
        </mxCell>
        <mxCell id="He911wZqvg5NJAg6M06w-102" value="" style="rounded=1;whiteSpace=wrap;html=1;arcSize=5;" vertex="1" parent="1">
          <mxGeometry x="491" y="3428" width="330" height="40" as="geometry" />
        </mxCell>
        <mxCell id="He911wZqvg5NJAg6M06w-106" value="Página de &quot;Registrarse&quot;" style="text;html=1;align=center;verticalAlign=middle;whiteSpace=wrap;rounded=0;fontSize=20;" vertex="1" parent="1">
          <mxGeometry x="556" y="3950" width="250" height="30" as="geometry" />
        </mxCell>
        <mxCell id="He911wZqvg5NJAg6M06w-107" value="&lt;div&gt;T004&lt;/div&gt;&lt;div&gt;&lt;br&gt;&lt;/div&gt;" style="text;html=1;align=center;verticalAlign=middle;whiteSpace=wrap;rounded=0;fontStyle=1;fontColor=#FF3333;fontSize=20;" vertex="1" parent="1">
          <mxGeometry x="36" y="3930" width="60" height="30" as="geometry" />
        </mxCell>
        <mxCell id="He911wZqvg5NJAg6M06w-108" value="" style="rounded=1;whiteSpace=wrap;html=1;arcSize=1;" vertex="1" parent="1">
          <mxGeometry x="41" y="4000" width="1240" height="860" as="geometry" />
        </mxCell>
        <mxCell id="He911wZqvg5NJAg6M06w-109" value="" style="rounded=1;whiteSpace=wrap;html=1;arcSize=3;" vertex="1" parent="1">
          <mxGeometry x="461" y="4230" width="410" height="600" as="geometry" />
        </mxCell>
        <mxCell id="He911wZqvg5NJAg6M06w-110" value="" style="rounded=1;whiteSpace=wrap;html=1;arcSize=5;" vertex="1" parent="1">
          <mxGeometry x="481" y="4265" width="370" height="505" as="geometry" />
        </mxCell>
        <mxCell id="He911wZqvg5NJAg6M06w-111" value="Registrarse" style="rounded=1;whiteSpace=wrap;html=1;arcSize=5;fontStyle=1;fontSize=16;" vertex="1" parent="1">
          <mxGeometry x="581" y="4781" width="170" height="40" as="geometry" />
        </mxCell>
        <mxCell id="He911wZqvg5NJAg6M06w-112" value="&lt;b&gt;Nombre completo&lt;br&gt;&lt;/b&gt;" style="text;html=1;align=center;verticalAlign=middle;whiteSpace=wrap;rounded=0;fontSize=20;" vertex="1" parent="1">
          <mxGeometry x="488" y="4283" width="192" height="30" as="geometry" />
        </mxCell>
        <mxCell id="He911wZqvg5NJAg6M06w-113" value="" style="rounded=1;whiteSpace=wrap;html=1;arcSize=5;" vertex="1" parent="1">
          <mxGeometry x="497" y="4310" width="330" height="40" as="geometry" />
        </mxCell>
        <mxCell id="He911wZqvg5NJAg6M06w-114" value="&lt;font style=&quot;font-size: 14px;&quot;&gt;&lt;span&gt;Registrate&amp;nbsp; a Potro-Titulate&lt;br&gt;&lt;/span&gt;&lt;/font&gt;" style="rounded=1;whiteSpace=wrap;html=1;dashed=1;dashPattern=1 1;fontStyle=0" vertex="1" parent="1">
          <mxGeometry x="532" y="4190" width="270" height="30" as="geometry" />
        </mxCell>
        <mxCell id="He911wZqvg5NJAg6M06w-115" value="" style="triangle;whiteSpace=wrap;html=1;direction=west;" vertex="1" parent="1">
          <mxGeometry x="69" y="4050" width="40" height="50" as="geometry" />
        </mxCell>
        <mxCell id="He911wZqvg5NJAg6M06w-116" value="" style="ellipse;whiteSpace=wrap;html=1;aspect=fixed;" vertex="1" parent="1">
          <mxGeometry x="606" y="4020" width="140" height="140" as="geometry" />
        </mxCell>
        <mxCell id="He911wZqvg5NJAg6M06w-117" value="Núm. Cuenta" style="text;html=1;align=center;verticalAlign=middle;whiteSpace=wrap;rounded=0;fontSize=20;fontStyle=1" vertex="1" parent="1">
          <mxGeometry x="493" y="4361" width="138" height="30" as="geometry" />
        </mxCell>
        <mxCell id="He911wZqvg5NJAg6M06w-118" value="" style="rounded=1;whiteSpace=wrap;html=1;arcSize=5;" vertex="1" parent="1">
          <mxGeometry x="497" y="4390" width="330" height="40" as="geometry" />
        </mxCell>
        <mxCell id="He911wZqvg5NJAg6M06w-119" value="&lt;span&gt;Licenciatura&lt;/span&gt;" style="text;html=1;align=center;verticalAlign=middle;whiteSpace=wrap;rounded=0;fontSize=20;fontStyle=1" vertex="1" parent="1">
          <mxGeometry x="527" y="4440" width="60" height="30" as="geometry" />
        </mxCell>
        <mxCell id="He911wZqvg5NJAg6M06w-120" value="" style="rounded=1;whiteSpace=wrap;html=1;arcSize=5;" vertex="1" parent="1">
          <mxGeometry x="497" y="4468" width="330" height="28" as="geometry" />
        </mxCell>
        <mxCell id="He911wZqvg5NJAg6M06w-121" value="Correo electrónico institucional" style="text;html=1;align=center;verticalAlign=middle;whiteSpace=wrap;rounded=0;fontSize=20;fontStyle=1" vertex="1" parent="1">
          <mxGeometry x="486" y="4514" width="320" height="30" as="geometry" />
        </mxCell>
        <mxCell id="He911wZqvg5NJAg6M06w-122" value="" style="rounded=1;whiteSpace=wrap;html=1;arcSize=5;" vertex="1" parent="1">
          <mxGeometry x="497" y="4542" width="330" height="40" as="geometry" />
        </mxCell>
        <mxCell id="He911wZqvg5NJAg6M06w-123" value="Contraseña" style="text;html=1;align=center;verticalAlign=middle;whiteSpace=wrap;rounded=0;fontSize=20;fontStyle=1" vertex="1" parent="1">
          <mxGeometry x="515" y="4591" width="76" height="30" as="geometry" />
        </mxCell>
        <mxCell id="He911wZqvg5NJAg6M06w-124" value="" style="rounded=1;whiteSpace=wrap;html=1;arcSize=5;" vertex="1" parent="1">
          <mxGeometry x="497" y="4618" width="330" height="40" as="geometry" />
        </mxCell>
        <mxCell id="He911wZqvg5NJAg6M06w-125" value="Confirmar contraseña" style="text;html=1;align=center;verticalAlign=middle;whiteSpace=wrap;rounded=0;fontSize=20;" vertex="1" parent="1">
          <mxGeometry x="490" y="4681" width="216" height="30" as="geometry" />
        </mxCell>
        <mxCell id="He911wZqvg5NJAg6M06w-126" value="" style="rounded=1;whiteSpace=wrap;html=1;arcSize=5;" vertex="1" parent="1">
          <mxGeometry x="497" y="4708" width="330" height="40" as="geometry" />
        </mxCell>
      </root>
    </mxGraphModel>
  </diagram>
</mxfile>
